Coordinates
version=1
nRows=9
nColumns=63
inDegrees=yes

Units are S.I. units (second, meters, Newtons, ...)
If the header above contains a line with 'inDegrees', this indicates whether rotational values are in degrees (yes) or radians (no).

endheader
time	pelvis_tilt	pelvis_list	pelvis_rotation	pelvis_tx	pelvis_ty	pelvis_tz	hip_flexion_r	hip_adduction_r	hip_rotation_r	knee_angle_r	knee_angle_r_beta	ankle_angle_r	subtalar_angle_r	mtp_angle_r	hip_flexion_l	hip_adduction_l	hip_rotation_l	knee_angle_l	knee_angle_l_beta	ankle_angle_l	subtalar_angle_l	mtp_angle_l	L5_S1_Flex_Ext	L5_S1_Lat_Bending	L5_S1_axial_rotation	L4_L5_Flex_Ext	L4_L5_Lat_Bending	L4_L5_axial_rotation	L3_L4_Flex_Ext	L3_L4_Lat_Bending	L3_L4_axial_rotation	L2_L3_Flex_Ext	L2_L3_Lat_Bending	L2_L3_axial_rotation	L1_L2_Flex_Ext	L1_L2_Lat_Bending	L1_L2_axial_rotation	L1_T12_Flex_Ext	L1_T12_Lat_Bending	L1_T12_axial_rotation	Abs_r3	Abs_r2	Abs_r1	Abs_t1	Abs_t2	neck_flexion	neck_bending	neck_rotation	arm_flex_r	arm_add_r	arm_rot_r	elbow_flex_r	pro_sup_r	wrist_flex_r	wrist_dev_r	arm_flex_l	arm_add_l	arm_rot_l	elbow_flex_l	pro_sup_l	wrist_flex_l	wrist_dev_l
2.576271	-0.069120	0.811479	88.827401	0.242015	0.802356	0.695089	-2.065096	2.606307	18.334544	6.703649	0.117001	34.248891	-17.200206	0.000000	-3.881936	-1.892474	-1.413973	3.978591	0.069440	39.733065	13.169664	0.000000	-0.052111	-0.201577	-1.603114	-0.096775	-0.268098	-1.703308	-0.085613	-0.490115	-1.703308	-0.059557	-0.490115	-1.402725	-0.048390	-0.411057	-1.302530	-0.029776	-0.312243	-1.202335	-0.372222	-2.280284	-8.916038	0.000000	0.000000	21.316293	-1.997835	-4.007602	20.704869	7.705058	233.076990	0.222048	33.030686	-66.495920	-18.129370	6.518192	-12.315049	45.065513	53.942639	78.195342	11.945899	16.492265
2.593220	0.087489	0.797118	89.391967	0.242035	0.802281	0.694818	-2.085601	2.811387	18.299071	6.564953	0.114580	34.604851	-17.226411	0.000000	-3.657055	-2.158664	-1.773159	4.255820	0.074278	39.953697	13.854461	0.000000	-0.043351	-0.251532	-1.592261	-0.080507	-0.334538	-1.691777	-0.071222	-0.611576	-1.691777	-0.049546	-0.611576	-1.393228	-0.040256	-0.512925	-1.293712	-0.024771	-0.389624	-1.194196	-0.309653	-2.845384	-8.855678	0.000000	0.000000	21.064107	-2.431698	-4.427976	20.509096	7.719859	233.648405	0.220701	30.307404	-66.309871	-18.598661	6.622500	-12.448185	45.723136	53.867766	76.484725	12.178826	16.800695
2.610169	0.270603	0.740343	89.951834	0.241926	0.802190	0.694671	-2.020467	3.042709	18.162878	6.487822	0.113234	34.945554	-17.199628	0.000000	-3.395847	-2.448379	-2.084792	4.507741	0.078675	40.127937	14.534936	0.000000	-0.030745	-0.292747	-1.584589	-0.057097	-0.389353	-1.683626	-0.050511	-0.711784	-1.683626	-0.035138	-0.711784	-1.386516	-0.028550	-0.596969	-1.287479	-0.017568	-0.453465	-1.188442	-0.219609	-3.311609	-8.813011	0.000000	0.000000	20.968827	-2.849287	-4.852406	20.309095	7.775350	234.282880	0.218875	27.955518	-66.051683	-19.089161	6.804761	-12.604884	46.491026	53.810345	75.187478	12.310413	16.940375
2.627119	0.480459	0.660694	90.503396	0.241686	0.802097	0.694638	-1.923077	3.294535	17.999109	6.422567	0.112095	35.185050	-17.228318	0.000000	-3.122606	-2.756968	-2.412136	4.731245	0.082576	40.268537	15.275977	0.000000	-0.018439	-0.323696	-1.589376	-0.034244	-0.430516	-1.688712	-0.030294	-0.787035	-1.688712	-0.021074	-0.787035	-1.390704	-0.017123	-0.660081	-1.291368	-0.010536	-0.501405	-1.192032	-0.131710	-3.661716	-8.839630	0.000000	0.000000	21.089999	-3.362358	-5.191463	20.144080	7.876863	235.298840	0.216554	25.614992	-65.758760	-19.600758	6.990137	-12.748358	47.096151	53.815221	74.347828	12.595236	17.169614
2.644068	0.695516	0.559922	91.056195	0.241349	0.802011	0.694654	-1.804010	3.545194	17.733452	6.369802	0.111174	35.327965	-17.239784	0.000000	-2.866832	-3.057988	-2.485944	4.875694	0.085097	40.320622	15.799875	0.000000	-0.005345	-0.348058	-1.603907	-0.009926	-0.462917	-1.704151	-0.008781	-0.846267	-1.704151	-0.006109	-0.846267	-1.403419	-0.004963	-0.709759	-1.303175	-0.003054	-0.539141	-1.202930	-0.038178	-3.937296	-8.920451	0.000000	0.000000	21.440244	-3.906785	-5.487557	20.008336	8.018552	236.225858	0.214212	23.821117	-65.474101	-20.080348	7.204247	-12.908152	47.656543	53.890602	73.997095	12.851163	17.394295
2.661017	0.903887	0.435462	91.577797	0.240996	0.801916	0.694762	-1.656721	3.785141	17.384292	6.334605	0.110560	35.397304	-17.223065	0.000000	-2.624259	-3.339351	-2.336450	4.945247	0.086311	40.294505	16.118520	0.000000	0.007604	-0.366933	-1.621184	0.014121	-0.488022	-1.722508	0.012492	-0.892162	-1.722508	0.008691	-0.892162	-1.418536	0.007061	-0.748251	-1.317212	0.004345	-0.568380	-1.215888	0.054314	-4.150825	-9.016538	0.000000	0.000000	22.021163	-4.459000	-5.699473	19.926650	8.200948	237.006302	0.211702	22.683237	-65.209254	-20.485620	7.448364	-13.087600	48.155089	54.035029	74.124316	13.057308	17.533422
2.677966	1.089083	0.307016	92.058122	0.240681	0.801833	0.694992	-1.504206	3.998317	16.999959	6.317378	0.110259	35.386663	-17.204348	0.000000	-2.403957	-3.584781	-2.019391	4.960272	0.086573	40.204709	16.277719	0.000000	0.015793	-0.383057	-1.641719	0.029330	-0.509466	-1.744327	0.025947	-0.931365	-1.744327	0.018050	-0.931365	-1.436504	0.014666	-0.781130	-1.333897	0.009024	-0.593356	-1.231289	0.112811	-4.333220	-9.130750	0.000000	0.000000	22.804216	-4.993932	-5.843731	19.915167	8.416697	237.649200	0.209304	22.045886	-64.942295	-20.755681	7.709407	-13.297782	48.531656	54.281427	74.719162	13.209005	17.658038
2.694915	1.244419	0.167051	92.534563	0.240389	0.801731	0.695318	-1.352214	4.181573	16.508655	6.304258	0.110030	35.288750	-17.174613	0.000000	-2.198876	-3.795374	-1.593036	4.909566	0.085688	40.063423	16.403921	0.000000	0.021257	-0.399103	-1.670860	0.039477	-0.530807	-1.775289	0.034924	-0.970380	-1.775289	0.024295	-0.970380	-1.462003	0.019740	-0.813851	-1.357574	0.012146	-0.618211	-1.253145	0.151839	-4.514736	-9.292824	0.000000	0.000000	23.698505	-5.470696	-6.072713	19.978686	8.665095	238.265172	0.206376	21.707672	-64.694492	-20.960020	7.945278	-13.542743	48.718819	54.655514	75.787270	13.315619	17.839547
2.711864	1.371314	0.037117	92.949206	0.240173	0.801617	0.695748	-1.214785	4.334731	15.962363	6.314353	0.110206	35.117027	-17.135934	0.000000	-2.058728	-3.960575	-0.736372	4.755408	0.082998	39.807844	16.012976	0.000000	0.021549	-0.413500	-1.696940	0.040020	-0.549956	-1.802998	0.035404	-1.005385	-1.802998	0.024629	-1.005385	-1.484822	0.020011	-0.843210	-1.378764	0.012313	-0.640512	-1.272705	0.153926	-4.677600	-9.437870	0.000000	0.000000	24.583917	-5.889854	-6.290632	20.123547	8.928994	238.564982	0.203282	22.210871	-64.544833	-20.977673	8.162092	-13.803810	48.750640	55.107193	77.297732	13.322654	17.933354
